<svg xmlns="http://www.w3.org/2000/svg" width="40" height="40" fill="none"><path fill="#fff" d="M32.17 14.91c-.186.144-3.456 1.99-3.456 6.096 0 4.75 4.161 6.43 4.286 6.471-.02.103-.661 2.302-2.194 4.542-1.367 1.971-2.795 3.94-4.966 3.94-2.172 0-2.73-1.265-5.238-1.265-2.443 0-3.312 1.306-5.298 1.306-1.987 0-3.373-1.824-4.967-4.064C8.491 29.305 7 25.218 7 21.339c0-6.221 4.037-9.52 8.01-9.52 2.11 0 3.87 1.388 5.196 1.388 1.262 0 3.229-1.472 5.63-1.472.91 0 4.181.083 6.334 3.175zM24.696 9.1c.994-1.18 1.696-2.82 1.696-4.458 0-.227-.019-.457-.06-.643-1.617.06-3.54 1.079-4.698 2.426-.91 1.037-1.76 2.675-1.76 4.336 0 .25.041.5.06.58.103.019.269.041.435.041 1.45 0 3.273-.973 4.327-2.282z"/></svg>