<svg xmlns="http://www.w3.org/2000/svg" width="58" height="56" fill="none"><path fill="#2997FF" d="M28.987 12.434c-1.256 0-2.325-1.067-2.325-2.321V2.32c0-1.253 1.069-2.32 2.325-2.32 1.282 0 2.35 1.067 2.35 2.321v7.792c0 1.254-1.068 2.32-2.35 2.32zM17.07 17.077c-.881.907-2.377.907-3.286 0L8.31 11.552c-.882-.907-.882-2.401 0-3.282.908-.88 2.404-.853 3.286.027l5.476 5.497c.909.907.909 2.401 0 3.281zm23.537.266c-.882-.88-.882-2.374 0-3.281l5.557-5.524c.882-.88 2.378-.88 3.26 0a2.349 2.349 0 0 1 0 3.309l-5.504 5.496c-.882.907-2.405.907-3.313 0zM26.876 47.494l.24-21.319c.027-.987 1.043-1.36 1.71-.667L43.44 40.477c.721.774.214 1.734-.775 1.787l-5.77.24 4.808 11.1a.942.942 0 0 1-.427 1.281l-2.672 1.04c-.48.214-1.015-.053-1.229-.533l-4.568-11.287-4.06 4.083c-.695.667-1.898.347-1.87-.694zM12.503 28.95c0 1.254-1.069 2.321-2.351 2.321H2.324C1.07 31.271 0 30.204 0 28.95c0-1.254 1.069-2.321 2.324-2.321h7.828c1.282 0 2.351 1.067 2.351 2.321zm33.02 0c0-1.254 1.07-2.321 2.325-2.321h7.801c1.282 0 2.351 1.067 2.351 2.321 0 1.254-1.069 2.321-2.351 2.321h-7.801c-1.256 0-2.324-1.067-2.324-2.321zM17.34 40.583c.908.908.908 2.402 0 3.282l-5.504 5.497c-.908.88-2.431.854-3.313-.027-.855-.88-.855-2.401.027-3.282l5.504-5.47c.908-.88 2.43-.88 3.286 0z"/></svg>