<svg xmlns="http://www.w3.org/2000/svg" width="64" height="40" fill="none"><path fill="#fff" d="M7.48 40C2.51 40 0 37.447 0 32.47V7.53C0 2.528 2.51 0 7.48 0h48.043c4.944 0 7.48 2.553 7.48 7.53v24.94c0 4.951-2.536 7.53-7.48 7.53H7.48zm.05-3.198h47.917c2.814 0 4.412-1.521 4.412-4.513V7.685c0-2.965-1.598-4.513-4.412-4.513H7.53c-2.84 0-4.386 1.548-4.386 4.513V32.29c0 2.992 1.546 4.513 4.386 4.513zM9.938 13.85c-.71 0-1.115-.412-1.115-1.135v-2.166c0-.722.406-1.135 1.115-1.135h2.13c.71 0 1.116.413 1.116 1.135v2.166c0 .723-.406 1.135-1.116 1.135h-2.13zm8.139 0c-.685 0-1.09-.412-1.09-1.135v-2.166c0-.722.405-1.135 1.09-1.135h2.155c.684 0 1.09.413 1.09 1.135v2.166c0 .723-.406 1.135-1.09 1.135h-2.155zm8.163 0c-.71 0-1.115-.412-1.115-1.135v-2.166c0-.722.405-1.135 1.115-1.135h2.155c.685 0 1.09.413 1.09 1.135v2.166c0 .723-.405 1.135-1.09 1.135H26.24zm8.139 0c-.685 0-1.09-.412-1.09-1.135v-2.166c0-.722.405-1.135 1.09-1.135h2.155c.71 0 1.115.413 1.115 1.135v2.166c0 .723-.405 1.135-1.115 1.135h-2.155zm8.163 0c-.684 0-1.09-.412-1.09-1.135v-2.166c0-.722.406-1.135 1.09-1.135h2.155c.685 0 1.09.413 1.09 1.135v2.166c0 .723-.405 1.135-1.09 1.135h-2.155zm8.164 0c-.71 0-1.115-.412-1.115-1.135v-2.166c0-.722.405-1.135 1.115-1.135h2.13c.71 0 1.115.413 1.115 1.135v2.166c0 .723-.405 1.135-1.115 1.135h-2.13zM9.938 22.153c-.71 0-1.115-.412-1.115-1.134v-2.192c0-.697.406-1.11 1.115-1.11h2.13c.71 0 1.116.413 1.116 1.11v2.192c0 .722-.406 1.134-1.116 1.134h-2.13zm8.139 0c-.685 0-1.09-.412-1.09-1.134v-2.192c0-.697.405-1.11 1.09-1.11h2.155c.684 0 1.09.413 1.09 1.11v2.192c0 .722-.406 1.134-1.09 1.134h-2.155zm8.163 0c-.71 0-1.115-.412-1.115-1.134v-2.192c0-.697.405-1.11 1.115-1.11h2.155c.685 0 1.09.413 1.09 1.11v2.192c0 .722-.405 1.134-1.09 1.134H26.24zm8.139 0c-.685 0-1.09-.412-1.09-1.134v-2.192c0-.697.405-1.11 1.09-1.11h2.155c.71 0 1.115.413 1.115 1.11v2.192c0 .722-.405 1.134-1.115 1.134h-2.155zm8.163 0c-.684 0-1.09-.412-1.09-1.134v-2.192c0-.697.406-1.11 1.09-1.11h2.155c.685 0 1.09.413 1.09 1.11v2.192c0 .722-.405 1.134-1.09 1.134h-2.155zm8.164 0c-.71 0-1.115-.412-1.115-1.134v-2.192c0-.697.405-1.11 1.115-1.11h2.13c.71 0 1.115.413 1.115 1.11v2.192c0 .722-.405 1.134-1.115 1.134h-2.13zM9.938 30.432c-.71 0-1.115-.413-1.115-1.109v-2.192c0-.696.406-1.11 1.115-1.11h2.13c.71 0 1.116.414 1.116 1.11v2.192c0 .696-.406 1.109-1.116 1.109h-2.13zm8.316 0c-.811 0-1.267-.464-1.267-1.29v-1.83c0-.826.456-1.29 1.267-1.29H44.52c.811 0 1.268.464 1.268 1.29v1.83c0 .826-.457 1.29-1.268 1.29H18.254zm32.452 0c-.71 0-1.115-.413-1.115-1.109v-2.192c0-.696.405-1.11 1.115-1.11h2.13c.71 0 1.115.414 1.115 1.11v2.192c0 .696-.405 1.109-1.115 1.109h-2.13z"/></svg>