<svg xmlns="http://www.w3.org/2000/svg" width="40" height="40" fill="none"><path fill="#E1C5AA" d="m19.946 3 4.946 4.946-4.946 4.946L15 7.946 19.947 3zm0 11.757 4.946 4.946-4.946 4.945L15 19.703l4.946-4.946zm0 11.351 4.946 4.946L19.946 36 15 31.054l4.946-4.946zm6.108-17.406L31 13.648l-4.946 4.946-4.946-4.946 4.946-4.946zm-12.108 0 4.946 4.946-4.946 4.946L9 13.648l4.946-4.946zm12.108 11.757L31 25.405l-4.946 4.946-4.946-4.946 4.946-4.946zm-12.108 0 4.946 4.946-4.946 4.946L9 25.405l4.946-4.946z"/></svg>