<svg xmlns="http://www.w3.org/2000/svg" width="62" height="45" fill="none"><path fill="#fff" d="M52.991 44.682c-.878-.605-.993-1.7-.37-2.656 3.58-5.311 5.845-12.068 5.845-19.523 0-7.479-2.264-14.188-5.845-19.523-.623-.956-.508-2.05.37-2.656.785-.583 1.917-.373 2.541.582C59.505 6.824 62 14.256 62 22.503c0 8.224-2.425 15.703-6.468 21.597-.624.932-1.755 1.165-2.54.582zm-28.09-1.607c-1.085 0-1.986-.443-3.025-1.468l-9.864-9.412c-.139-.14-.347-.21-.578-.21H4.828C1.686 31.985 0 30.261 0 26.883v-8.667c0-3.355 1.686-5.102 4.828-5.102h6.606c.231 0 .44-.07.578-.21l9.864-9.319c1.155-1.141 1.894-1.607 2.98-1.607 1.57 0 2.656 1.234 2.656 2.749v35.739c0 1.514-1.086 2.609-2.61 2.609zm19.428-4.566c-.855-.583-.97-1.678-.324-2.633 2.472-3.634 3.973-8.41 3.973-13.373 0-4.962-1.455-9.785-3.973-13.373-.67-.955-.531-2.05.324-2.633.854-.582 1.917-.372 2.54.513 2.98 4.054 4.69 9.738 4.69 15.493 0 5.755-1.733 11.393-4.69 15.493-.623.885-1.686 1.095-2.54.513zm-8.57-6.081c-.947-.676-1.063-1.794-.37-2.773 1.317-1.887 2.102-4.45 2.102-7.152 0-2.703-.762-5.289-2.102-7.152-.716-.956-.578-2.12.37-2.773.762-.559 1.848-.373 2.471.536 1.779 2.376 2.842 5.825 2.842 9.389 0 3.565-1.063 7.036-2.842 9.389-.623.909-1.71 1.072-2.471.536z"/></svg>