<svg xmlns="http://www.w3.org/2000/svg" width="30" height="30" fill="none"><path fill="#fff" d="M26.978 7.438a9.39 9.39 0 0 1-2.755.774 4.907 4.907 0 0 0 2.109-2.72 9.473 9.473 0 0 1-3.046 1.193 4.734 4.734 0 0 0-3.5-1.553c-2.65 0-4.797 2.202-4.797 4.918 0 .385.043.761.124 1.12-3.986-.204-7.52-2.163-9.886-5.14a5.003 5.003 0 0 0-.648 2.475 4.95 4.95 0 0 0 2.133 4.093 4.696 4.696 0 0 1-2.173-.616v.062c0 2.384 1.653 4.372 3.848 4.823a4.686 4.686 0 0 1-2.166.085c.61 1.953 2.381 3.376 4.48 3.416A9.47 9.47 0 0 1 3.6 22.405a13.335 13.335 0 0 0 7.352 2.209c8.822 0 13.646-7.495 13.646-13.994 0-.213-.005-.425-.014-.636a9.902 9.902 0 0 0 2.394-2.546z"/></svg>